<svg xmlns="http://www.w3.org/2000/svg" width="50" height="50"><style/><g id="experience"><g id="form"><path id="Shape 7" d="M16.5 18.99h-1a2.5 2.5 0 0 1-2.5-2.5v-1a2.5 2.5 0 0 1 2.5-2.5h1a2.5 2.5 0 0 1 2.5 2.5v1a2.5 2.5 0 0 1-2.5 2.5zm-1-5c-.83 0-1.5.67-1.5 1.5v1c0 .83.67 1.5 1.5 1.5h1c.83 0 1.5-.67 1.5-1.5v-1c0-.83-.67-1.5-1.5-1.5h-1zm22.51 3h-16v-2h16v2zM16.5 29h-1c-1.38 0-2.5-1.13-2.5-2.5v-1a2.5 2.5 0 0 1 2.5-2.5h1a2.5 2.5 0 0 1 2.5 2.5v1c0 1.37-1.12 2.5-2.5 2.5zm-1-5c-.83 0-1.5.67-1.5 1.5v1c0 .82.67 1.5 1.5 1.5h1c.83 0 1.5-.68 1.5-1.5v-1c0-.83-.67-1.5-1.5-1.5h-1zm22.51 3h-16v-2h16v2zM16.5 39h-1a2.5 2.5 0 0 1-2.5-2.5v-1a2.5 2.5 0 0 1 2.5-2.5h1a2.5 2.5 0 0 1 2.5 2.5v1a2.5 2.5 0 0 1-2.5 2.5zm-1-5c-.83 0-1.5.67-1.5 1.5v1c0 .83.67 1.5 1.5 1.5h1c.83 0 1.5-.67 1.5-1.5v-1c0-.83-.67-1.5-1.5-1.5h-1zm22.51 3h-16v-2h16v2zM25.5 49C12.54 49 2 38.46 2 25.5S12.54 2 25.5 2 49 12.54 49 25.5 38.46 49 25.5 49zm0-46C13.09 3 3 13.09 3 25.5S13.09 48 25.5 48 48 37.91 48 25.5 37.91 3 25.5 3z" fill="#9e9e9e"/></g></g></svg>