<svg xmlns="http://www.w3.org/2000/svg" width="50" height="50"><style/><g id="about"><path id="icon" d="M40.02 13.99H24.01v-2h16.01v2zm0 6H24.01v-2h16.01v2zm0 6.01H24.01v-2h16.01v2zm0 6h-29v-2h29v2zm0 6h-29v-2h29v2zM20 12.99c.55 0 1 .45 1 1v9c0 .55-.45 1-1 1h-7c-.56 0-1-.45-1-1v-9c0-.55.44-1 1-1h7m0-1h-7c-1.11 0-2 .89-2 2v9a2 2 0 0 0 2 2h7c1.1 0 2-.9 2-2v-9a2 2 0 0 0-2-2zM25.5 49C12.54 49 2 38.46 2 25.5S12.54 2 25.5 2 49 12.54 49 25.5 38.46 49 25.5 49zm0-46C13.09 3 3 13.09 3 25.5S13.09 48 25.5 48 48 37.91 48 25.5 37.91 3 25.5 3z" fill="#9e9e9e"/></g></svg>