<svg xmlns="http://www.w3.org/2000/svg" width="50" height="50"><style/><g id="personal info"><path id="icon" d="M35.85 10.31l-20.5 1.7c-.02 0-.03.01-.04.01h-.14c-.64 0-1.17.51-1.17 1.13v25.72c0 .63.53 1.13 1.17 1.13h.14c.01 0 .02.01.04.01l.09-.01H34.3c.65 0 1.17-.5 1.17-1.13v-.53l.38-.03c.63 0 1.14-.51 1.14-1.13V11.44c0-.62-.51-1.13-1.14-1.13zm-1.9 28.56c0 .07-.07.12-.15.12H15.17c-.08 0-.14-.05-.14-.12V13.15c0-.07.06-.12.14-.12H33.8c.08 0 .15.05.15.12v25.72zm2.02-1.69c0 .07-.06.12-.12.12h-.09l-.79.03V13.15c0-.62-.52-1.13-1.17-1.13h-5.9l7.97-.7c.06.01.1.06.1.12v25.74zM29.87 33H19.14c-.63 0-1.14.54-1.14 1.2v.6c0 .66.51 1.2 1.14 1.2h10.73c.63 0 1.14-.54 1.14-1.2v-.6c0-.66-.51-1.2-1.14-1.2zm.14 1.8c0 .11-.07.2-.14.2H19.14c-.07 0-.14-.09-.14-.2v-.6c0-.12.08-.2.14-.2h10.73c.06 0 .14.08.14.2v.6zM24.5 29a6.5 6.5 0 1 1 0-13 6.5 6.5 0 0 1 0 13zm0-12c-3.04 0-5.5 2.46-5.5 5.5s2.46 5.5 5.5 5.5 5.5-2.46 5.5-5.5-2.46-5.5-5.5-5.5zm1 32C12.54 49 2 38.46 2 25.5S12.54 2 25.5 2 49 12.54 49 25.5 38.46 49 25.5 49zm0-46C13.09 3 3 13.09 3 25.5S13.09 48 25.5 48 48 37.91 48 25.5 37.91 3 25.5 3z" fill="#9e9e9e"/></g></svg>