<svg xmlns="http://www.w3.org/2000/svg"><symbol id="icon-about"><style/><g id="about"><path id="icon" d="M40.02 13.99H24.01v-2h16.01v2zm0 6H24.01v-2h16.01v2zm0 6.01H24.01v-2h16.01v2zm0 6h-29v-2h29v2zm0 6h-29v-2h29v2zM20 12.99c.55 0 1 .45 1 1v9c0 .55-.45 1-1 1h-7c-.56 0-1-.45-1-1v-9c0-.55.44-1 1-1h7m0-1h-7c-1.11 0-2 .89-2 2v9a2 2 0 0 0 2 2h7c1.1 0 2-.9 2-2v-9a2 2 0 0 0-2-2zM25.5 49C12.54 49 2 38.46 2 25.5S12.54 2 25.5 2 49 12.54 49 25.5 38.46 49 25.5 49zm0-46C13.09 3 3 13.09 3 25.5S13.09 48 25.5 48 48 37.91 48 25.5 37.91 3 25.5 3z" fill="#9e9e9e"/></g></symbol><symbol id="icon-bio"><style/><g id="personal info"><path id="icon" d="M35.85 10.31l-20.5 1.7c-.02 0-.03.01-.04.01h-.14c-.64 0-1.17.51-1.17 1.13v25.72c0 .63.53 1.13 1.17 1.13h.14c.01 0 .02.01.04.01l.09-.01H34.3c.65 0 1.17-.5 1.17-1.13v-.53l.38-.03c.63 0 1.14-.51 1.14-1.13V11.44c0-.62-.51-1.13-1.14-1.13zm-1.9 28.56c0 .07-.07.12-.15.12H15.17c-.08 0-.14-.05-.14-.12V13.15c0-.07.06-.12.14-.12H33.8c.08 0 .15.05.15.12v25.72zm2.02-1.69c0 .07-.06.12-.12.12h-.09l-.79.03V13.15c0-.62-.52-1.13-1.17-1.13h-5.9l7.97-.7c.06.01.1.06.1.12v25.74zM29.87 33H19.14c-.63 0-1.14.54-1.14 1.2v.6c0 .66.51 1.2 1.14 1.2h10.73c.63 0 1.14-.54 1.14-1.2v-.6c0-.66-.51-1.2-1.14-1.2zm.14 1.8c0 .11-.07.2-.14.2H19.14c-.07 0-.14-.09-.14-.2v-.6c0-.12.08-.2.14-.2h10.73c.06 0 .14.08.14.2v.6zM24.5 29a6.5 6.5 0 1 1 0-13 6.5 6.5 0 0 1 0 13zm0-12c-3.04 0-5.5 2.46-5.5 5.5s2.46 5.5 5.5 5.5 5.5-2.46 5.5-5.5-2.46-5.5-5.5-5.5zm1 32C12.54 49 2 38.46 2 25.5S12.54 2 25.5 2 49 12.54 49 25.5 38.46 49 25.5 49zm0-46C13.09 3 3 13.09 3 25.5S13.09 48 25.5 48 48 37.91 48 25.5 37.91 3 25.5 3z" fill="#9e9e9e"/></g></symbol><symbol id="icon-burger"><path d="M1.137 0C.51 0 0 .428 0 1.01v1.981c0 .558.494 1.01 1.139 1.01H48.81c.628 0 1.138-.428 1.138-1.01V1.01c0-.558-.494-1.01-1.138-1.01H1.137zm0 10.003c-.627 0-1.137.428-1.137 1.01v1.98c0 .557.494 1.01 1.139 1.01H48.81c.628 0 1.138-.428 1.138-1.01v-1.98c0-.558-.494-1.01-1.138-1.01H1.137zm0 10.002C.51 20.005 0 20.434 0 21.016v1.981c0 .557.494 1.01 1.139 1.01H48.81c.628 0 1.138-.428 1.138-1.01v-1.981c0-.558-.494-1.011-1.138-1.011H1.137z"/><path d="M1.137 0C.51 0 0 .428 0 1.01v1.981c0 .558.494 1.01 1.139 1.01H48.81c.628 0 1.138-.428 1.138-1.01V1.01c0-.558-.494-1.01-1.138-1.01H1.137zm0 10.003c-.627 0-1.137.428-1.137 1.01v1.98c0 .557.494 1.01 1.139 1.01H48.81c.628 0 1.138-.428 1.138-1.01v-1.98c0-.558-.494-1.01-1.138-1.01H1.137zm0 10.002C.51 20.005 0 20.434 0 21.016v1.981c0 .557.494 1.01 1.139 1.01H48.81c.628 0 1.138-.428 1.138-1.01v-1.981c0-.558-.494-1.011-1.138-1.011H1.137z"/></symbol><symbol id="icon-cross"><path d="M15.087 11.933l8.56-8.559a.75.75 0 0 0 0-1.061L21.554.22a.747.747 0 0 0-1.06 0l-8.561 8.56L3.373.22a.771.771 0 0 0-1.061 0L.22 2.313a.75.75 0 0 0 0 1.061l8.56 8.559-8.56 8.559a.751.751 0 0 0 0 1.062l2.093 2.094a.744.744 0 0 0 1.06 0l8.561-8.56 8.56 8.56a.746.746 0 0 0 1.06 0l2.093-2.094a.751.751 0 0 0 0-1.062l-8.56-8.559z"/></symbol><symbol id="icon-exp"><style/><g id="experience"><g id="form"><path id="Shape 7" d="M16.5 18.99h-1a2.5 2.5 0 0 1-2.5-2.5v-1a2.5 2.5 0 0 1 2.5-2.5h1a2.5 2.5 0 0 1 2.5 2.5v1a2.5 2.5 0 0 1-2.5 2.5zm-1-5c-.83 0-1.5.67-1.5 1.5v1c0 .83.67 1.5 1.5 1.5h1c.83 0 1.5-.67 1.5-1.5v-1c0-.83-.67-1.5-1.5-1.5h-1zm22.51 3h-16v-2h16v2zM16.5 29h-1c-1.38 0-2.5-1.13-2.5-2.5v-1a2.5 2.5 0 0 1 2.5-2.5h1a2.5 2.5 0 0 1 2.5 2.5v1c0 1.37-1.12 2.5-2.5 2.5zm-1-5c-.83 0-1.5.67-1.5 1.5v1c0 .82.67 1.5 1.5 1.5h1c.83 0 1.5-.68 1.5-1.5v-1c0-.83-.67-1.5-1.5-1.5h-1zm22.51 3h-16v-2h16v2zM16.5 39h-1a2.5 2.5 0 0 1-2.5-2.5v-1a2.5 2.5 0 0 1 2.5-2.5h1a2.5 2.5 0 0 1 2.5 2.5v1a2.5 2.5 0 0 1-2.5 2.5zm-1-5c-.83 0-1.5.67-1.5 1.5v1c0 .83.67 1.5 1.5 1.5h1c.83 0 1.5-.67 1.5-1.5v-1c0-.83-.67-1.5-1.5-1.5h-1zm22.51 3h-16v-2h16v2zM25.5 49C12.54 49 2 38.46 2 25.5S12.54 2 25.5 2 49 12.54 49 25.5 38.46 49 25.5 49zm0-46C13.09 3 3 13.09 3 25.5S13.09 48 25.5 48 48 37.91 48 25.5 37.91 3 25.5 3z" fill="#9e9e9e"/></g></g></symbol><symbol id="icon-js"><style/><g id="js"><path id="icon" d="M19.36 17H22v11.06c0 .78-.12 1.48-.37 2.09-.25.61-.59 1.13-1.04 1.55-.44.41-.97.74-1.58.95-.61.22-1.28.33-2 .33-.73 0-1.4-.09-2.01-.28-.61-.18-1.14-.47-1.58-.86-.45-.39-.79-.88-1.04-1.48-.25-.59-.37-1.28-.37-2.08h2.65c0 .45.05.84.17 1.16.12.32.28.58.48.78.21.2.46.34.74.44.29.09.61.14.96.14.34 0 .66-.06.95-.18.28-.12.53-.3.74-.53.21-.23.37-.51.48-.85.12-.34.18-.73.18-1.18V17zm14.85 11.77c0-.32-.05-.6-.14-.84-.1-.25-.27-.47-.53-.68-.25-.21-.6-.4-1.04-.59-.45-.19-1.02-.39-1.72-.6-.76-.22-1.47-.47-2.12-.75-.64-.29-1.2-.62-1.67-1-.46-.37-.83-.81-1.09-1.3-.27-.49-.4-1.05-.4-1.69 0-.62.14-1.2.41-1.73.28-.52.67-.98 1.17-1.36.5-.39 1.09-.69 1.79-.9.7-.22 1.47-.32 2.32-.32.9 0 1.72.12 2.44.38.72.25 1.33.59 1.82 1.03.5.43.88.94 1.14 1.51.27.57.4 1.18.4 1.83h-2.78c0-.38-.06-.72-.18-1.04-.12-.32-.31-.59-.56-.82-.25-.23-.56-.41-.95-.54-.38-.13-.83-.19-1.35-.19-.49 0-.92.05-1.28.16-.36.1-.66.25-.9.44-.24.2-.42.42-.53.69-.11.26-.17.55-.17.85 0 .58.28 1.06.84 1.44.56.39 1.42.75 2.58 1.07.9.26 1.69.54 2.35.86.66.31 1.21.66 1.65 1.06.43.39.76.84.97 1.33.22.5.32 1.06.32 1.68 0 .65-.13 1.24-.4 1.76-.27.53-.65.97-1.15 1.34-.49.36-1.1.65-1.8.84-.71.2-1.49.29-2.36.29-.77 0-1.53-.1-2.28-.3-.75-.2-1.43-.51-2.02-.92-.6-.41-1.08-.92-1.44-1.53-.37-.61-.55-1.33-.55-2.16h2.79c0 .49.09.91.27 1.27.18.35.43.64.74.86.31.23.68.39 1.11.49.43.11.89.16 1.38.16.97 0 1.7-.19 2.19-.57.49-.38.73-.89.73-1.51zM25.5 49C12.54 49 2 38.46 2 25.5S12.54 2 25.5 2 49 12.54 49 25.5 38.46 49 25.5 49zm0-46C13.09 3 3 13.09 3 25.5S13.09 48 25.5 48 48 37.91 48 25.5 37.91 3 25.5 3z" fill="#9e9e9e"/></g></symbol><symbol id="icon-yes"><style/><g id="checkbox"><g id="active"><path id="Shape 6" d="M13.71 2.71l-7 7-.21-.21-.21.21-5-5 1.42-1.42 3.79 3.8 5.79-5.8 1.42 1.42z" fill="#fff"/></g></g></symbol></svg>